{
    "asset" : {
        "generator" : "Khronos glTF Blender I/O v1.4.40",
        "version" : "2.0"
    },
    "scene" : 0,
    "scenes" : [
        {
            "name" : "Scene",
            "nodes" : [
                0,
                1,
                2
            ]
        }
    ],
    "nodes" : [
        {
            "name" : "Light",
            "rotation" : [
                0.16907575726509094,
                0.7558803558349609,
                -0.27217137813568115,
                0.570947527885437
            ],
            "translation" : [
                4.076245307922363,
                5.903861999511719,
                -1.0054539442062378
            ]
        },
        {
            "name" : "Camera",
            "rotation" : [
                0.483536034822464,
                0.33687159419059753,
                -0.20870360732078552,
                0.7804827094078064
            ],
            "translation" : [
                7.358891487121582,
                4.958309173583984,
                6.925790786743164
            ]
        },
        {
            "mesh" : 0,
            "name" : "FaceBuilderHead",
            "rotation" : [
                -0.15308456122875214,
                -0.04103449359536171,
                -0.021961914375424385,
                0.9871165156364441
            ],
            "scale" : [
                0.29248255491256714,
                0.2924825847148895,
                0.2924825847148895
            ],
            "translation" : [
                -0.02141941338777542,
                0.23967429995536804,
                -0.014653501100838184
            ]
        }
    ],
    "materials" : [
        {
            "doubleSided" : true,
            "name" : "kt_facebuilder_material",
            "pbrMetallicRoughness" : {
                "baseColorFactor" : [
                    0.8000000715255737,
                    0.16774152219295502,
                    0.25075802206993103,
                    1
                ],
                "metallicFactor" : 0.6477272510528564,
                "roughnessFactor" : 0.0727272629737854
            }
        }
    ],
    "meshes" : [
        {
            "name" : "FaceBuilderHead_mesh",
            "primitives" : [
                {
                    "attributes" : {
                        "POSITION" : 0,
                        "NORMAL" : 1,
                        "TEXCOORD_0" : 2
                    },
                    "indices" : 3,
                    "material" : 0
                }
            ]
        }
    ],
    "accessors" : [
        {
            "bufferView" : 0,
            "componentType" : 5126,
            "count" : 16891,
            "max" : [
                0.7649221420288086,
                1.1605054140090942,
                1.23404860496521
            ],
            "min" : [
                -0.8059487342834473,
                -0.7784663438796997,
                -0.5623793601989746
            ],
            "type" : "VEC3"
        },
        {
            "bufferView" : 1,
            "componentType" : 5126,
            "count" : 16891,
            "type" : "VEC3"
        },
        {
            "bufferView" : 2,
            "componentType" : 5126,
            "count" : 16891,
            "type" : "VEC2"
        },
        {
            "bufferView" : 3,
            "componentType" : 5123,
            "count" : 100464,
            "type" : "SCALAR"
        }
    ],
    "bufferViews" : [
        {
            "buffer" : 0,
            "byteLength" : 202692,
            "byteOffset" : 0
        },
        {
            "buffer" : 0,
            "byteLength" : 202692,
            "byteOffset" : 202692
        },
        {
            "buffer" : 0,
            "byteLength" : 135128,
            "byteOffset" : 405384
        },
        {
            "buffer" : 0,
            "byteLength" : 200928,
            "byteOffset" : 540512
        }
    ],
    "buffers" : [
        {
            "byteLength" : 741440,
            "uri" : "pink.bin"
        }
    ]
}
