{
    "asset" : {
        "generator" : "Khronos glTF Blender I/O v1.4.40",
        "version" : "2.0"
    },
    "scene" : 0,
    "scenes" : [
        {
            "name" : "Scene",
            "nodes" : [
                0,
                1,
                2,
                3,
                4,
                5,
                6
            ]
        }
    ],
    "nodes" : [
        {
            "name" : "Light",
            "rotation" : [
                0.16907575726509094,
                0.7558803558349609,
                -0.27217137813568115,
                0.570947527885437
            ],
            "scale" : [
                1.000657558441162,
                1.000657558441162,
                1.0006576776504517
            ],
            "translation" : [
                -1.804719090461731,
                6.252346515655518,
                1.9014105796813965
            ]
        },
        {
            "name" : "Camera",
            "rotation" : [
                0.483536034822464,
                0.33687159419059753,
                -0.20870360732078552,
                0.7804827094078064
            ],
            "scale" : [
                1.000657558441162,
                1.000657558441162,
                1.000657558441162
            ],
            "translation" : [
                7.362757205963135,
                4.959196090698242,
                6.928830623626709
            ]
        },
        {
            "mesh" : 0,
            "name" : "human_male_base03"
        },
        {
            "mesh" : 1,
            "name" : "Cube",
            "scale" : [
                7.606904983520508,
                7.606904983520508,
                7.606904983520508
            ],
            "translation" : [
                -1.124955654144287,
                2.071251630783081,
                0.801393985748291
            ]
        },
        {
            "mesh" : 2,
            "name" : "Cube.001",
            "scale" : [
                7.6184773445129395,
                7.6184773445129395,
                7.6184773445129395
            ],
            "translation" : [
                1.5951632261276245,
                2.0329225063323975,
                0.10623948276042938
            ]
        },
        {
            "mesh" : 3,
            "name" : "Sphere.001",
            "scale" : [
                0.0647224634885788,
                0.0647224634885788,
                0.0647224634885788
            ],
            "translation" : [
                1.3376985788345337,
                2.15714693069458,
                0.494229793548584
            ]
        },
        {
            "mesh" : 4,
            "name" : "Sphere.002",
            "scale" : [
                0.0647224634885788,
                0.0647224634885788,
                0.0647224634885788
            ],
            "translation" : [
                1.8564095497131348,
                2.1598243713378906,
                0.49364322423934937
            ]
        }
    ],
    "materials" : [
        {
            "doubleSided" : true,
            "name" : "human_skin.001",
            "pbrMetallicRoughness" : {
                "baseColorFactor" : [
                    0.9403921365737915,
                    0.6680561900138855,
                    0.36523574590682983,
                    1
                ],
                "metallicFactor" : 0,
                "roughnessFactor" : 0.5
            }
        },
        {
            "doubleSided" : true,
            "name" : "cornea.001",
            "pbrMetallicRoughness" : {
                "baseColorFactor" : [
                    0.800000011920929,
                    0.800000011920929,
                    0.800000011920929,
                    1
                ],
                "metallicFactor" : 0,
                "roughnessFactor" : 0.5
            }
        },
        {
            "doubleSided" : true,
            "name" : "human_eyes.001",
            "pbrMetallicRoughness" : {
                "baseColorFactor" : [
                    0.800000011920929,
                    0.800000011920929,
                    0.800000011920929,
                    1
                ],
                "metallicFactor" : 0,
                "roughnessFactor" : 0.5
            }
        },
        {
            "doubleSided" : true,
            "name" : "Fur.001",
            "pbrMetallicRoughness" : {
                "baseColorFactor" : [
                    0.800000011920929,
                    0.800000011920929,
                    0.800000011920929,
                    1
                ],
                "metallicFactor" : 0,
                "roughnessFactor" : 0.5
            }
        },
        {
            "doubleSided" : true,
            "name" : "Teeth.001",
            "pbrMetallicRoughness" : {
                "baseColorFactor" : [
                    0.800000011920929,
                    0.800000011920929,
                    0.800000011920929,
                    1
                ],
                "metallicFactor" : 0,
                "roughnessFactor" : 0.5
            }
        },
        {
            "doubleSided" : true,
            "name" : "Rust Procedural 2",
            "pbrMetallicRoughness" : {}
        }
    ],
    "meshes" : [
        {
            "name" : "human_male.001",
            "primitives" : [
                {
                    "attributes" : {
                        "POSITION" : 0,
                        "NORMAL" : 1,
                        "TEXCOORD_0" : 2
                    },
                    "indices" : 3,
                    "material" : 0
                },
                {
                    "attributes" : {
                        "POSITION" : 4,
                        "NORMAL" : 5,
                        "TEXCOORD_0" : 6
                    },
                    "indices" : 7,
                    "material" : 1
                },
                {
                    "attributes" : {
                        "POSITION" : 8,
                        "NORMAL" : 9,
                        "TEXCOORD_0" : 10
                    },
                    "indices" : 11,
                    "material" : 2
                },
                {
                    "attributes" : {
                        "POSITION" : 12,
                        "NORMAL" : 13,
                        "TEXCOORD_0" : 14
                    },
                    "indices" : 15,
                    "material" : 3
                },
                {
                    "attributes" : {
                        "POSITION" : 16,
                        "NORMAL" : 17,
                        "TEXCOORD_0" : 18
                    },
                    "indices" : 19,
                    "material" : 4
                }
            ]
        },
        {
            "name" : "Cube",
            "primitives" : [
                {
                    "attributes" : {
                        "POSITION" : 20,
                        "NORMAL" : 21,
                        "TEXCOORD_0" : 22,
                        "TEXCOORD_1" : 23
                    },
                    "indices" : 24,
                    "material" : 5
                }
            ]
        },
        {
            "name" : "Cube.001",
            "primitives" : [
                {
                    "attributes" : {
                        "POSITION" : 25,
                        "NORMAL" : 26,
                        "TEXCOORD_0" : 27,
                        "TEXCOORD_1" : 28
                    },
                    "indices" : 29,
                    "material" : 5
                }
            ]
        },
        {
            "name" : "Sphere.001",
            "primitives" : [
                {
                    "attributes" : {
                        "POSITION" : 30,
                        "NORMAL" : 31,
                        "TEXCOORD_0" : 32,
                        "TEXCOORD_1" : 33
                    },
                    "indices" : 34,
                    "material" : 5
                }
            ]
        },
        {
            "name" : "Sphere.002",
            "primitives" : [
                {
                    "attributes" : {
                        "POSITION" : 35,
                        "NORMAL" : 36,
                        "TEXCOORD_0" : 37,
                        "TEXCOORD_1" : 38
                    },
                    "indices" : 34,
                    "material" : 5
                }
            ]
        }
    ],
    "accessors" : [
        {
            "bufferView" : 0,
            "componentType" : 5126,
            "count" : 15154,
            "max" : [
                0.8010799884796143,
                1.7616100311279297,
                0.24365000426769257
            ],
            "min" : [
                -0.8010799884796143,
                -0.001230000052601099,
                -0.09444999694824219
            ],
            "type" : "VEC3"
        },
        {
            "bufferView" : 1,
            "componentType" : 5126,
            "count" : 15154,
            "type" : "VEC3"
        },
        {
            "bufferView" : 2,
            "componentType" : 5126,
            "count" : 15154,
            "type" : "VEC2"
        },
        {
            "bufferView" : 3,
            "componentType" : 5123,
            "count" : 79356,
            "type" : "SCALAR"
        },
        {
            "bufferView" : 4,
            "componentType" : 5126,
            "count" : 604,
            "max" : [
                0.04977000132203102,
                1.6676599979400635,
                0.13940000534057617
            ],
            "min" : [
                -0.04977000132203102,
                1.6332900524139404,
                0.10458999872207642
            ],
            "type" : "VEC3"
        },
        {
            "bufferView" : 5,
            "componentType" : 5126,
            "count" : 604,
            "type" : "VEC3"
        },
        {
            "bufferView" : 6,
            "componentType" : 5126,
            "count" : 604,
            "type" : "VEC2"
        },
        {
            "bufferView" : 7,
            "componentType" : 5123,
            "count" : 3408,
            "type" : "SCALAR"
        },
        {
            "bufferView" : 8,
            "componentType" : 5126,
            "count" : 746,
            "max" : [
                0.04878000169992447,
                1.6666699647903442,
                0.13830000162124634
            ],
            "min" : [
                -0.04878000169992447,
                1.6342799663543701,
                0.1055700033903122
            ],
            "type" : "VEC3"
        },
        {
            "bufferView" : 9,
            "componentType" : 5126,
            "count" : 746,
            "type" : "VEC3"
        },
        {
            "bufferView" : 10,
            "componentType" : 5126,
            "count" : 746,
            "type" : "VEC2"
        },
        {
            "bufferView" : 11,
            "componentType" : 5123,
            "count" : 4128,
            "type" : "SCALAR"
        },
        {
            "bufferView" : 12,
            "componentType" : 5126,
            "count" : 2176,
            "max" : [
                0.04887000098824501,
                1.6596100330352783,
                0.14395000040531158
            ],
            "min" : [
                -0.04887000098824501,
                1.6441899538040161,
                0.13298000395298004
            ],
            "type" : "VEC3"
        },
        {
            "bufferView" : 13,
            "componentType" : 5126,
            "count" : 2176,
            "type" : "VEC3"
        },
        {
            "bufferView" : 14,
            "componentType" : 5126,
            "count" : 2176,
            "type" : "VEC2"
        },
        {
            "bufferView" : 15,
            "componentType" : 5123,
            "count" : 3264,
            "type" : "SCALAR"
        },
        {
            "bufferView" : 16,
            "componentType" : 5126,
            "count" : 2869,
            "max" : [
                0.02824000082910061,
                1.594249963760376,
                0.1521800011396408
            ],
            "min" : [
                -0.02824000082910061,
                1.575510025024414,
                0.10796000063419342
            ],
            "type" : "VEC3"
        },
        {
            "bufferView" : 17,
            "componentType" : 5126,
            "count" : 2869,
            "type" : "VEC3"
        },
        {
            "bufferView" : 18,
            "componentType" : 5126,
            "count" : 2869,
            "type" : "VEC2"
        },
        {
            "bufferView" : 19,
            "componentType" : 5123,
            "count" : 13056,
            "type" : "SCALAR"
        },
        {
            "bufferView" : 20,
            "componentType" : 5126,
            "count" : 770,
            "max" : [
                0.1626402586698532,
                0.1661626398563385,
                0.01033329963684082
            ],
            "min" : [
                -0.1626402586698532,
                -0.2813696563243866,
                -0.3192525804042816
            ],
            "type" : "VEC3"
        },
        {
            "bufferView" : 21,
            "componentType" : 5126,
            "count" : 770,
            "type" : "VEC3"
        },
        {
            "bufferView" : 22,
            "componentType" : 5126,
            "count" : 770,
            "type" : "VEC2"
        },
        {
            "bufferView" : 23,
            "componentType" : 5126,
            "count" : 770,
            "type" : "VEC2"
        },
        {
            "bufferView" : 24,
            "componentType" : 5123,
            "count" : 774,
            "type" : "SCALAR"
        },
        {
            "bufferView" : 25,
            "componentType" : 5126,
            "count" : 15290,
            "max" : [
                0.16348133981227875,
                0.1731705665588379,
                0.09054305404424667
            ],
            "min" : [
                -0.16348162293434143,
                -0.256009042263031,
                -0.22884562611579895
            ],
            "type" : "VEC3"
        },
        {
            "bufferView" : 26,
            "componentType" : 5126,
            "count" : 15290,
            "type" : "VEC3"
        },
        {
            "bufferView" : 27,
            "componentType" : 5126,
            "count" : 15290,
            "type" : "VEC2"
        },
        {
            "bufferView" : 28,
            "componentType" : 5126,
            "count" : 15290,
            "type" : "VEC2"
        },
        {
            "bufferView" : 29,
            "componentType" : 5123,
            "count" : 73344,
            "type" : "SCALAR"
        },
        {
            "bufferView" : 30,
            "componentType" : 5126,
            "count" : 1984,
            "max" : [
                1.000000238418579,
                1,
                1.0000003576278687
            ],
            "min" : [
                -0.9999998211860657,
                -1,
                -1
            ],
            "type" : "VEC3"
        },
        {
            "bufferView" : 31,
            "componentType" : 5126,
            "count" : 1984,
            "type" : "VEC3"
        },
        {
            "bufferView" : 32,
            "componentType" : 5126,
            "count" : 1984,
            "type" : "VEC2"
        },
        {
            "bufferView" : 33,
            "componentType" : 5126,
            "count" : 1984,
            "type" : "VEC2"
        },
        {
            "bufferView" : 34,
            "componentType" : 5123,
            "count" : 2880,
            "type" : "SCALAR"
        },
        {
            "bufferView" : 35,
            "componentType" : 5126,
            "count" : 1984,
            "max" : [
                1.000000238418579,
                1,
                1.0000003576278687
            ],
            "min" : [
                -0.9999998211860657,
                -1,
                -1
            ],
            "type" : "VEC3"
        },
        {
            "bufferView" : 36,
            "componentType" : 5126,
            "count" : 1984,
            "type" : "VEC3"
        },
        {
            "bufferView" : 37,
            "componentType" : 5126,
            "count" : 1984,
            "type" : "VEC2"
        },
        {
            "bufferView" : 38,
            "componentType" : 5126,
            "count" : 1984,
            "type" : "VEC2"
        }
    ],
    "bufferViews" : [
        {
            "buffer" : 0,
            "byteLength" : 181848,
            "byteOffset" : 0
        },
        {
            "buffer" : 0,
            "byteLength" : 181848,
            "byteOffset" : 181848
        },
        {
            "buffer" : 0,
            "byteLength" : 121232,
            "byteOffset" : 363696
        },
        {
            "buffer" : 0,
            "byteLength" : 158712,
            "byteOffset" : 484928
        },
        {
            "buffer" : 0,
            "byteLength" : 7248,
            "byteOffset" : 643640
        },
        {
            "buffer" : 0,
            "byteLength" : 7248,
            "byteOffset" : 650888
        },
        {
            "buffer" : 0,
            "byteLength" : 4832,
            "byteOffset" : 658136
        },
        {
            "buffer" : 0,
            "byteLength" : 6816,
            "byteOffset" : 662968
        },
        {
            "buffer" : 0,
            "byteLength" : 8952,
            "byteOffset" : 669784
        },
        {
            "buffer" : 0,
            "byteLength" : 8952,
            "byteOffset" : 678736
        },
        {
            "buffer" : 0,
            "byteLength" : 5968,
            "byteOffset" : 687688
        },
        {
            "buffer" : 0,
            "byteLength" : 8256,
            "byteOffset" : 693656
        },
        {
            "buffer" : 0,
            "byteLength" : 26112,
            "byteOffset" : 701912
        },
        {
            "buffer" : 0,
            "byteLength" : 26112,
            "byteOffset" : 728024
        },
        {
            "buffer" : 0,
            "byteLength" : 17408,
            "byteOffset" : 754136
        },
        {
            "buffer" : 0,
            "byteLength" : 6528,
            "byteOffset" : 771544
        },
        {
            "buffer" : 0,
            "byteLength" : 34428,
            "byteOffset" : 778072
        },
        {
            "buffer" : 0,
            "byteLength" : 34428,
            "byteOffset" : 812500
        },
        {
            "buffer" : 0,
            "byteLength" : 22952,
            "byteOffset" : 846928
        },
        {
            "buffer" : 0,
            "byteLength" : 26112,
            "byteOffset" : 869880
        },
        {
            "buffer" : 0,
            "byteLength" : 9240,
            "byteOffset" : 895992
        },
        {
            "buffer" : 0,
            "byteLength" : 9240,
            "byteOffset" : 905232
        },
        {
            "buffer" : 0,
            "byteLength" : 6160,
            "byteOffset" : 914472
        },
        {
            "buffer" : 0,
            "byteLength" : 6160,
            "byteOffset" : 920632
        },
        {
            "buffer" : 0,
            "byteLength" : 1548,
            "byteOffset" : 926792
        },
        {
            "buffer" : 0,
            "byteLength" : 183480,
            "byteOffset" : 928340
        },
        {
            "buffer" : 0,
            "byteLength" : 183480,
            "byteOffset" : 1111820
        },
        {
            "buffer" : 0,
            "byteLength" : 122320,
            "byteOffset" : 1295300
        },
        {
            "buffer" : 0,
            "byteLength" : 122320,
            "byteOffset" : 1417620
        },
        {
            "buffer" : 0,
            "byteLength" : 146688,
            "byteOffset" : 1539940
        },
        {
            "buffer" : 0,
            "byteLength" : 23808,
            "byteOffset" : 1686628
        },
        {
            "buffer" : 0,
            "byteLength" : 23808,
            "byteOffset" : 1710436
        },
        {
            "buffer" : 0,
            "byteLength" : 15872,
            "byteOffset" : 1734244
        },
        {
            "buffer" : 0,
            "byteLength" : 15872,
            "byteOffset" : 1750116
        },
        {
            "buffer" : 0,
            "byteLength" : 5760,
            "byteOffset" : 1765988
        },
        {
            "buffer" : 0,
            "byteLength" : 23808,
            "byteOffset" : 1771748
        },
        {
            "buffer" : 0,
            "byteLength" : 23808,
            "byteOffset" : 1795556
        },
        {
            "buffer" : 0,
            "byteLength" : 15872,
            "byteOffset" : 1819364
        },
        {
            "buffer" : 0,
            "byteLength" : 15872,
            "byteOffset" : 1835236
        }
    ],
    "buffers" : [
        {
            "byteLength" : 1851108,
            "uri" : "scene.bin"
        }
    ]
}
