{
  "accessors": [
    {
      "bufferView": 0,
      "componentType": 5126,
      "count": 287834,
      "type": "VEC3",
      "max": [
        109.20099639892578,
        94.653602600097656,
        -42.379901885986328
      ],
      "min": [
        -53.886199951171875,
        -85.82440185546875,
        -274.58200073242188
      ]
    },
    {
      "bufferView": 1,
      "componentType": 5126,
      "count": 287834,
      "type": "VEC3",
      "max": [
        1.0,
        1.0,
        1.0
      ],
      "min": [
        -1.0,
        -1.0,
        -1.0
      ]
    },
    {
      "bufferView": 2,
      "componentType": 5126,
      "count": 287834,
      "type": "VEC4",
      "max": [
        1.0,
        0.0,
        0.0,
        1.0
      ],
      "min": [
        1.0,
        0.0,
        0.0,
        1.0
      ]
    },
    {
      "bufferView": 3,
      "componentType": 5125,
      "count": 1724043,
      "type": "SCALAR",
      "max": [
        287833.0
      ],
      "min": [
        0.0
      ]
    }
  ],
  "asset": {
    "version": "2.0"
  },
  "buffers": [
    {
      "uri": "surface-JayTobin.bin",
      "byteLength": 18409532
    }
  ],
  "bufferViews": [
    {
      "buffer": 0,
      "byteLength": 3454008
    },
    {
      "buffer": 0,
      "byteOffset": 3454008,
      "byteLength": 3454008
    },
    {
      "buffer": 0,
      "byteOffset": 6908016,
      "byteLength": 4605344
    },
    {
      "buffer": 0,
      "byteOffset": 11513360,
      "byteLength": 6896172
    }
  ],
  "materials": [
    {
      "emissiveFactor": [
        1.0,
        1.0,
        1.0
      ],
      "name": "New Material 1"
    }
  ],
  "meshes": [
    {
      "primitives": [
        {
          "attributes": {
            "POSITION": 0,
            "NORMAL": 1,
            "TANGENT": 2
          },
          "indices": 3,
          "material": 0
        }
      ],
      "name": "default"
    }
  ],
  "nodes": [
    {
      "children": [
        1
      ],
      "rotation": [
        0.0,
        0.0,
        0.0,
        -1.0
      ],
      "translation": [
        29.1164074,
        29.4079781,
        3.099928
      ],
      "name": "surface"
    },
    {
      "mesh": 0,
      "rotation": [
        0.0,
        0.0,
        0.0,
        -1.0
      ],
      "scale": [
        0.17943,
        0.17943,
        0.17943
      ],
      "name": "default"
    }
  ],
  "scene": 0,
  "scenes": [
    {
      "nodes": [
        0
      ],
      "name": "surface"
    }
  ]
}