{
    "asset" : {
        "generator" : "Khronos glTF Blender I/O v1.1.46",
        "version" : "2.0"
    },
    "scene" : 0,
    "scenes" : [
        {
            "name" : "Scene",
            "nodes" : [
                0,
                1,
                2,
                3,
                4,
                5
            ]
        }
    ],
    "nodes" : [
        {
            "name" : "Camera",
            "rotation" : [
                0.6389431953430176,
                0.11751707643270493,
                -0.10140416026115417,
                0.7534312009811401
            ],
            "translation" : [
                6.760566711425781,
                7.815459728240967,
                21.665664672851562
            ]
        },
        {
            "name" : "Light",
            "rotation" : [
                0.16907575726509094,
                0.7558803558349609,
                -0.27217137813568115,
                0.570947527885437
            ],
            "translation" : [
                2.4997072219848633,
                11.162209510803223,
                -0.8404912948608398
            ]
        },
        {
            "mesh" : 0,
            "name" : "Merged_extract35",
            "rotation" : [
                0.7071068286895752,
                0,
                0,
                0.7071067094802856
            ],
            "scale" : [
                0.921118438243866,
                0.921118438243866,
                0.921118438243866
            ],
            "translation" : [
                -0.09787115454673767,
                8.03030014038086,
                -0.10984939336776733
            ]
        },
        {
            "mesh" : 1,
            "name" : "Cube",
            "scale" : [
                1.5361123085021973,
                2.2641165256500244,
                0.9859705567359924
            ],
            "translation" : [
                -0.08441323041915894,
                2.3261032104492188,
                -0.5332354307174683
            ]
        },
        {
            "name" : "Light.001",
            "rotation" : [
                0.16907575726509094,
                0.7558803558349609,
                -0.27217137813568115,
                0.570947527885437
            ],
            "translation" : [
                -4.871852397918701,
                15.78837776184082,
                -0.8039488196372986
            ]
        },
        {
            "name" : "Light.002",
            "rotation" : [
                0.16907575726509094,
                0.7558803558349609,
                -0.27217137813568115,
                0.570947527885437
            ],
            "translation" : [
                12.344568252563477,
                0.3633594512939453,
                -2.1188387870788574
            ]
        }
    ],
    "materials" : [
        {
            "doubleSided" : true,
            "emissiveFactor" : [
                0,
                0,
                0
            ],
            "name" : "Merged_extract35",
            "pbrMetallicRoughness" : {
                "baseColorFactor" : [
                    1,
                    1,
                    1,
                    1
                ],
                "metallicFactor" : 0.6788990497589111,
                "roughnessFactor" : 0.8623853325843811
            }
        }
    ],
    "meshes" : [
        {
            "name" : "Merged_extract35",
            "primitives" : [
                {
                    "attributes" : {
                        "POSITION" : 0,
                        "NORMAL" : 1
                    },
                    "indices" : 2,
                    "material" : 0
                }
            ]
        },
        {
            "name" : "Cube",
            "primitives" : [
                {
                    "attributes" : {
                        "POSITION" : 3,
                        "NORMAL" : 4,
                        "TEXCOORD_0" : 5
                    },
                    "indices" : 6
                }
            ]
        }
    ],
    "accessors" : [
        {
            "bufferView" : 0,
            "componentType" : 5126,
            "count" : 2062322,
            "max" : [
                1.5785720348358154,
                0.5144948959350586,
                3.7572295665740967
            ],
            "min" : [
                -1.630745530128479,
                -1.592287302017212,
                -0.9193082451820374
            ],
            "type" : "VEC3"
        },
        {
            "bufferView" : 1,
            "componentType" : 5126,
            "count" : 2062322,
            "type" : "VEC3"
        },
        {
            "bufferView" : 2,
            "componentType" : 5125,
            "count" : 12365046,
            "type" : "SCALAR"
        },
        {
            "bufferView" : 3,
            "componentType" : 5126,
            "count" : 24,
            "max" : [
                1,
                1,
                1
            ],
            "min" : [
                -1,
                -1,
                -1
            ],
            "type" : "VEC3"
        },
        {
            "bufferView" : 4,
            "componentType" : 5126,
            "count" : 24,
            "type" : "VEC3"
        },
        {
            "bufferView" : 5,
            "componentType" : 5126,
            "count" : 24,
            "type" : "VEC2"
        },
        {
            "bufferView" : 6,
            "componentType" : 5123,
            "count" : 36,
            "type" : "SCALAR"
        }
    ],
    "bufferViews" : [
        {
            "buffer" : 0,
            "byteLength" : 24747864,
            "byteOffset" : 0
        },
        {
            "buffer" : 0,
            "byteLength" : 24747864,
            "byteOffset" : 24747864
        },
        {
            "buffer" : 0,
            "byteLength" : 49460184,
            "byteOffset" : 49495728
        },
        {
            "buffer" : 0,
            "byteLength" : 288,
            "byteOffset" : 98955912
        },
        {
            "buffer" : 0,
            "byteLength" : 288,
            "byteOffset" : 98956200
        },
        {
            "buffer" : 0,
            "byteLength" : 192,
            "byteOffset" : 98956488
        },
        {
            "buffer" : 0,
            "byteLength" : 72,
            "byteOffset" : 98956680
        }
    ],
    "buffers" : [
        {
            "byteLength" : 98956752,
            "uri" : "Demir's Andro.bin"
        }
    ]
}
