{
    "asset" : {
        "generator" : "Khronos glTF Blender I/O v1.1.46",
        "version" : "2.0"
    },
    "scene" : 0,
    "scenes" : [
        {
            "name" : "Scene",
            "nodes" : [
                0,
                1,
                2
            ]
        }
    ],
    "nodes" : [
        {
            "name" : "Light",
            "rotation" : [
                0.16907575726509094,
                0.7558802962303162,
                -0.27217137813568115,
                0.570947527885437
            ],
            "translation" : [
                5.2100911140441895,
                6.504464149475098,
                0.15374480187892914
            ]
        },
        {
            "name" : "Light.001",
            "rotation" : [
                0.16907575726509094,
                0.7558802962303162,
                -0.27217137813568115,
                0.570947527885437
            ],
            "translation" : [
                -4.831410884857178,
                6.279935836791992,
                -0.2719162106513977
            ]
        },
        {
            "mesh" : 0,
            "name" : "Skin_ZSphere_2",
            "rotation" : [
                0.7640126347541809,
                -0.020745402202010155,
                -0.030112624168395996,
                0.6441642045974731
            ],
            "scale" : [
                1.7304128408432007,
                1.7304128408432007,
                1.7304128408432007
            ],
            "translation" : [
                -0.047412753105163574,
                1.0384050607681274,
                -0.8560141921043396
            ]
        }
    ],
    "materials" : [
        {
            "doubleSided" : true,
            "emissiveFactor" : [
                0,
                0,
                0
            ],
            "name" : "Skin_ZSphere_2",
            "pbrMetallicRoughness" : {
                "baseColorFactor" : [
                    1,
                    1,
                    1,
                    1
                ],
                "metallicFactor" : 1,
                "roughnessFactor" : 1
            }
        }
    ],
    "meshes" : [
        {
            "name" : "Skin_ZSphere_2",
            "primitives" : [
                {
                    "attributes" : {
                        "POSITION" : 0,
                        "NORMAL" : 1
                    },
                    "indices" : 2,
                    "material" : 0
                }
            ]
        }
    ],
    "accessors" : [
        {
            "bufferView" : 0,
            "componentType" : 5126,
            "count" : 1498618,
            "max" : [
                0.4210752844810486,
                0.8928853273391724,
                0.588311493396759
            ],
            "min" : [
                -0.33945217728614807,
                -0.3101559281349182,
                -1.3013603687286377
            ],
            "type" : "VEC3"
        },
        {
            "bufferView" : 1,
            "componentType" : 5126,
            "count" : 1498618,
            "type" : "VEC3"
        },
        {
            "bufferView" : 2,
            "componentType" : 5125,
            "count" : 8991744,
            "type" : "SCALAR"
        }
    ],
    "bufferViews" : [
        {
            "buffer" : 0,
            "byteLength" : 17983416,
            "byteOffset" : 0
        },
        {
            "buffer" : 0,
            "byteLength" : 17983416,
            "byteOffset" : 17983416
        },
        {
            "buffer" : 0,
            "byteLength" : 35966976,
            "byteOffset" : 35966832
        }
    ],
    "buffers" : [
        {
            "byteLength" : 71933808,
            "uri" : "Figure Sketch.bin"
        }
    ]
}
